<svg width="1347" height="1113" viewBox="0 0 1347 1113" fill="none" xmlns="http://www.w3.org/2000/svg">
<path d="M536.366 810.4C504.633 810.4 476.633 802.233 452.366 785.9C428.099 769.567 409.199 747.633 395.666 720.1C382.133 692.1 375.366 660.6 375.366 625.6C375.366 589.2 383.299 556.767 399.166 528.3C415.033 499.367 437.433 476.5 466.366 459.7C495.766 442.9 530.299 434.5 569.966 434.5C610.099 434.5 644.166 442.9 672.166 459.7C700.633 476.033 722.333 498.667 737.266 527.6C752.666 556.067 760.366 588.033 760.366 623.5V802H653.966V744.6H651.166C644.633 757.2 636.233 768.633 625.966 778.9C615.699 788.7 603.099 796.4 588.166 802C573.699 807.6 556.433 810.4 536.366 810.4ZM568.566 716.6C584.899 716.6 599.133 712.633 611.266 704.7C623.866 696.3 633.433 684.867 639.966 670.4C646.499 655.933 649.766 639.833 649.766 622.1C649.766 604.833 646.499 589.2 639.966 575.2C633.433 561.2 623.866 550.233 611.266 542.3C599.133 533.9 584.899 529.7 568.566 529.7C551.766 529.7 537.066 533.9 524.466 542.3C511.866 550.233 502.299 561.2 495.766 575.2C489.233 589.2 485.966 604.833 485.966 622.1C485.966 639.833 489.233 655.933 495.766 670.4C502.299 684.867 511.866 696.3 524.466 704.7C537.066 712.633 551.766 716.6 568.566 716.6ZM918.303 802C898.237 802 881.203 797.8 867.203 789.4C853.203 781 842.237 769.8 834.303 755.8C826.37 741.8 822.403 726.633 822.403 710.3C822.403 694.433 826.37 680.2 834.303 667.6C842.703 654.533 853.903 643.567 867.903 634.7L996.003 549.3C998.337 547.9 999.97 546.5 1000.9 545.1C1001.84 543.233 1002.3 541.833 1002.3 540.9C1002.3 538.567 1001.37 536.7 999.503 535.3C997.637 533.433 995.303 532.5 992.503 532.5H838.503L837.803 442.9H1030.3C1048.97 442.9 1065.07 447.333 1078.6 456.2C1092.6 464.6 1103.57 475.8 1111.5 489.8C1119.9 503.8 1124.1 518.967 1124.1 535.3C1124.1 550.7 1120.14 565.167 1112.2 578.7C1104.74 591.767 1094.47 602.733 1081.4 611.6L953.303 695.6C951.437 697 950.037 698.4 949.103 699.8C948.17 701.2 947.703 702.6 947.703 704C947.703 706.333 948.637 708.433 950.503 710.3C952.37 711.7 954.703 712.4 957.503 712.4H1117.1V802H918.303ZM1194.02 802V442.9H1303.22V802H1194.02ZM1248.62 402.3C1231.35 402.3 1216.42 396 1203.82 383.4C1191.22 370.8 1184.92 355.867 1184.92 338.6C1184.92 321.333 1191.22 306.4 1203.82 293.8C1216.42 280.733 1231.35 274.2 1248.62 274.2C1265.89 274.2 1280.82 280.733 1293.42 293.8C1306.02 306.4 1312.32 321.333 1312.32 338.6C1312.32 355.867 1306.02 370.8 1293.42 383.4C1280.82 396 1265.89 402.3 1248.62 402.3Z" fill="white"/>
<path d="M0 231H130.671C141.717 231 150.671 239.954 150.671 251V782C150.671 793.046 141.717 802 130.671 802H0V231Z" fill="white"/>
<path d="M170.761 782V549.555C170.761 534.405 186.95 524.756 200.275 531.963L310.947 591.821C317.407 595.315 321.432 602.068 321.432 609.413V782C321.432 793.046 312.478 802 301.432 802H190.761C179.715 802 170.761 793.046 170.761 782Z" fill="white" stroke="white"/>
<path d="M170.945 251.486V466.488C170.945 481.397 186.67 491.064 199.974 484.334L310.645 428.341C317.374 424.936 321.616 418.036 321.616 410.495V251.486C321.616 240.44 312.661 231.486 301.616 231.486H190.945C179.899 231.486 170.945 240.44 170.945 251.486Z" fill="#EA580C" stroke="#EA580C"/>
</svg>
