<svg width="1745" height="558" viewBox="0 0 1745 558" fill="none" xmlns="http://www.w3.org/2000/svg">
<g clip-path="url(#clip0_10_18)">
<path d="M463 277.852C463 383.473 376.036 469.708 268 469.708C159.964 469.708 73 383.473 73 277.852C73 172.23 159.964 85.9951 268 85.9951C376.036 85.9951 463 172.23 463 277.852Z" stroke="#075985" stroke-width="50"/>
<path d="M384.023 336.275C391.417 336.275 397.544 342.333 396.011 349.566C394.459 356.888 391.627 364.065 387.561 370.935C381.057 381.923 371.525 391.907 359.508 400.318C347.491 408.728 333.225 415.399 317.524 419.951C301.823 424.502 284.995 426.845 268 426.845C251.006 426.845 234.177 424.502 218.476 419.951C202.775 415.399 188.509 408.728 176.492 400.318C164.475 391.907 154.943 381.923 148.439 370.935C144.374 364.065 141.541 356.888 139.989 349.566C138.456 342.333 144.583 336.275 151.977 336.275C159.372 336.275 165.21 342.367 167.124 349.51C168.429 354.383 170.455 359.16 173.179 363.763C178.337 372.478 185.897 380.396 195.427 387.066C204.958 393.736 216.272 399.027 228.724 402.636C241.176 406.246 254.522 408.104 268 408.104C281.478 408.104 294.824 406.246 307.276 402.636C319.729 399.027 331.043 393.736 340.573 387.066C350.104 380.396 357.664 372.478 362.821 363.763C365.546 359.16 367.571 354.383 368.877 349.51C370.79 342.367 376.628 336.275 384.023 336.275Z" fill="#D77011"/>
<path d="M318.25 347C325.083 348.333 328.5 352.083 328.5 358.25C328.5 362.417 326.583 366.167 322.75 369.5C319.083 372.667 313.75 374.25 306.75 374.25C294.75 374.25 284.917 370.583 277.25 363.25C269.75 355.75 266 346 266 334C266 327.5 269.333 322.833 276 320C283.333 316.833 288.583 313.5 291.75 310C294.917 306.333 296.5 301.917 296.5 296.75C296.5 293.75 295.833 291.5 294.5 290C293.333 288.5 291.833 287.75 290 287.75C285.5 287.75 280.5 291 275 297.5C269.667 304 264.667 312.417 260 322.75C255.333 332.917 251.667 343.417 249 354.25C247.167 362.083 245 367.417 242.5 370.25C240.167 372.917 236.417 374.25 231.25 374.25C226.083 374.25 222.25 372.417 219.75 368.75C217.417 364.917 215.833 359.083 215 351.25C214.167 343.417 213.75 331.917 213.75 316.75C213.75 291.083 216.333 264.333 221.5 236.5C226.833 208.667 234.583 185.333 244.75 166.5C255.083 147.5 267.417 138 281.75 138C289.417 138 295.583 141.333 300.25 148C305.083 154.5 307.5 163 307.5 173.5C307.5 190.333 302.583 207.833 292.75 226C282.917 244 266.917 265.083 244.75 289.25C244.25 297.917 244 306.833 244 316C252 295.167 261.167 280.083 271.5 270.75C281.833 261.25 291.5 256.5 300.5 256.5C308.833 256.5 315.5 259.333 320.5 265C325.667 270.667 328.25 277.667 328.25 286C328.25 295.167 325.917 303.583 321.25 311.25C316.583 318.917 308.583 325.75 297.25 331.75C298.25 336.75 300.25 340.25 303.25 342.25C306.417 344.083 311.417 345.667 318.25 347ZM276.5 162.75C273.5 162.75 270.167 167.083 266.5 175.75C262.833 184.25 259.25 195.833 255.75 210.5C252.417 225 249.667 240.833 247.5 258C257.833 245.833 266.333 232.583 273 218.25C279.833 203.917 283.25 190.917 283.25 179.25C283.25 173.917 282.667 169.833 281.5 167C280.333 164.167 278.667 162.75 276.5 162.75Z" fill="#075985"/>
<path d="M725.8 363.1C728.4 363.1 730.4 364.3 731.8 366.7C733.4 369.1 734.2 372.4 734.2 376.6C734.2 384.6 732.3 390.8 728.5 395.2C719.5 406.2 710.4 415 701.2 421.6C692 428.2 681.1 431.5 668.5 431.5C653.1 431.5 640.7 427.1 631.3 418.3C621.9 409.5 617.2 397.8 617.2 383.2C617.2 375.4 621.2 369.8 629.2 366.4C638 362.6 644.3 358.6 648.1 354.4C651.9 350 653.8 344.7 653.8 338.5C653.8 334.9 653 332.2 651.4 330.4C650 328.6 648.2 327.7 646 327.7C640.6 327.7 634.6 331.6 628 339.4C621.6 347.2 615.6 357.3 610 369.7C604.4 381.9 600 394.5 596.8 407.5C594.6 416.9 592 423.3 589 426.7C586.2 429.9 581.7 431.5 575.5 431.5C569.3 431.5 564.7 429.3 561.7 424.9C558.9 420.3 557 413.3 556 403.9C555 394.5 554.5 380.7 554.5 362.5C554.5 331.7 557.6 299.6 563.8 266.2C570.2 232.8 579.5 204.8 591.7 182.2C604.1 159.4 618.9 148 636.1 148C645.3 148 652.7 152 658.3 160C664.1 167.8 667 178 667 190.6C667 210.8 661.1 231.8 649.3 253.6C637.5 275.2 618.3 300.5 591.7 329.5C591.1 339.9 590.8 350.6 590.8 361.6C600.4 336.6 611.4 318.5 623.8 307.3C636.2 295.9 647.8 290.2 658.6 290.2C668.6 290.2 676.6 293.6 682.6 300.4C688.8 307.2 691.9 315.6 691.9 325.6C691.9 336.6 689.1 346.7 683.5 355.9C677.9 365.1 668.3 373.3 654.7 380.5C655.5 385.9 657.9 390.3 661.9 393.7C666.1 396.9 671.1 398.5 676.9 398.5C683.1 398.5 689.1 396.1 694.9 391.3C700.7 386.5 708.3 378.5 717.7 367.3C720.1 364.5 722.8 363.1 725.8 363.1ZM629.8 177.7C626.2 177.7 622.2 182.9 617.8 193.3C613.4 203.5 609.1 217.4 604.9 235C600.9 252.4 597.6 271.4 595 292C607.4 277.4 617.6 261.5 625.6 244.3C633.8 227.1 637.9 211.5 637.9 197.5C637.9 191.1 637.2 186.2 635.8 182.8C634.4 179.4 632.4 177.7 629.8 177.7ZM746.917 431.5C734.517 431.5 724.617 427 717.217 418C709.817 409 706.117 397.2 706.117 382.6C706.117 366.6 709.817 351.5 717.217 337.3C724.617 322.9 734.417 311.4 746.617 302.8C759.017 294 772.117 289.6 785.917 289.6C790.317 289.6 793.217 290.5 794.617 292.3C796.217 293.9 797.517 296.9 798.517 301.3C802.717 300.5 807.117 300.1 811.717 300.1C821.517 300.1 826.417 303.6 826.417 310.6C826.417 314.8 824.917 324.8 821.917 340.6C817.317 363.6 815.017 379.6 815.017 388.6C815.017 391.6 815.717 394 817.117 395.8C818.717 397.6 820.717 398.5 823.117 398.5C826.917 398.5 831.517 396.1 836.917 391.3C842.317 386.3 849.617 378.3 858.817 367.3C861.217 364.5 863.917 363.1 866.917 363.1C869.517 363.1 871.517 364.3 872.917 366.7C874.517 369.1 875.317 372.4 875.317 376.6C875.317 384.6 873.417 390.8 869.617 395.2C861.417 405.4 852.717 414 843.517 421C834.317 428 825.417 431.5 816.817 431.5C810.217 431.5 804.117 429.3 798.517 424.9C793.117 420.3 789.017 414.1 786.217 406.3C775.817 423.1 762.717 431.5 746.917 431.5ZM757.717 401.2C762.117 401.2 766.317 398.6 770.317 393.4C774.317 388.2 777.217 381.3 779.017 372.7L790.117 317.5C781.717 317.7 773.917 320.9 766.717 327.1C759.717 333.1 754.117 341.1 749.917 351.1C745.717 361.1 743.617 371.7 743.617 382.9C743.617 389.1 744.817 393.7 747.217 396.7C749.817 399.7 753.317 401.2 757.717 401.2ZM994.776 363.1C997.376 363.1 999.376 364.3 1000.78 366.7C1002.38 369.1 1003.18 372.4 1003.18 376.6C1003.18 384 1001.28 390.2 997.476 395.2C988.076 407.4 976.376 417 962.376 424C948.576 431 932.976 434.5 915.576 434.5C901.976 434.5 890.176 432.5 880.176 428.5C870.176 424.3 862.476 418.7 857.076 411.7C851.876 404.5 849.276 396.5 849.276 387.7C849.276 374.5 854.576 362.8 865.176 352.6C875.776 342.4 890.976 332.6 910.776 323.2L861.576 324.4C857.176 324.6 853.776 323.1 851.376 319.9C849.176 316.5 848.076 312.5 848.076 307.9C848.076 303.1 849.176 298.9 851.376 295.3C853.776 291.5 856.976 289.6 860.976 289.6C870.176 289.6 882.476 290.3 897.876 291.7C901.076 291.9 906.876 292.3 915.276 292.9C923.876 293.5 931.076 293.8 936.876 293.8C938.876 293.8 942.676 293 948.276 291.4C949.276 291.2 951.176 290.7 953.976 289.9C956.976 289.1 959.476 288.7 961.476 288.7C964.676 288.7 967.276 290.1 969.276 292.9C971.476 295.7 972.576 300 972.576 305.8C972.576 312.2 971.076 317.2 968.076 320.8C965.076 324.4 960.376 327.6 953.976 330.4C935.776 338.2 920.676 346.6 908.676 355.6C896.676 364.4 890.676 373.2 890.676 382C890.676 387.6 893.276 392.2 898.476 395.8C903.676 399.4 911.376 401.2 921.576 401.2C932.776 401.2 944.076 398.4 955.476 392.8C967.076 387.2 977.476 378.7 986.676 367.3C989.076 364.5 991.776 363.1 994.776 363.1ZM1020.07 270.4C1011.67 270.4 1005.37 268.5 1001.17 264.7C996.97 260.7 994.87 255.2 994.87 248.2C994.87 241.2 997.57 235.4 1002.97 230.8C1008.57 226 1015.47 223.6 1023.67 223.6C1031.07 223.6 1037.07 225.4 1041.67 229C1046.27 232.6 1048.57 237.7 1048.57 244.3C1048.57 252.3 1045.97 258.7 1040.77 263.5C1035.57 268.1 1028.67 270.4 1020.07 270.4ZM991.27 431.5C984.87 431.5 980.47 430.2 978.07 427.6C975.67 425 974.47 420.9 974.47 415.3C974.47 413.7 974.67 410.9 975.07 406.9C978.27 370.3 983.57 337 990.97 307C992.57 300.8 995.17 296.5 998.77 294.1C1002.57 291.5 1008.57 290.2 1016.77 290.2C1025.37 290.2 1029.67 293.7 1029.67 300.7C1029.67 301.7 1029.47 303.6 1029.07 306.4C1020.07 349.2 1014.67 385.1 1012.87 414.1C1012.47 420.5 1010.57 425 1007.17 427.6C1003.77 430.2 998.47 431.5 991.27 431.5Z" fill="#075985"/>
<path d="M1402.37 363.1C1404.97 363.1 1406.97 364.3 1408.37 366.7C1409.97 369.1 1410.77 372.4 1410.77 376.6C1410.77 384.4 1408.87 390.6 1405.07 395.2C1385.27 419.4 1364.17 431.5 1341.77 431.5C1322.37 431.5 1306.87 424 1295.27 409C1283.67 394 1277.87 372.5 1277.87 344.5C1277.87 337.7 1278.17 330.9 1278.77 324.1C1265.57 326.5 1251.17 328.3 1235.57 329.5C1225.17 330.3 1218.07 330.8 1214.27 331C1210.27 351.4 1204.67 376.4 1197.47 406C1193.27 423.4 1185.27 432.1 1173.47 432.1C1160.67 432.1 1154.27 426.3 1154.27 414.7C1154.27 412.1 1154.77 408.5 1155.77 403.9C1162.57 376.5 1167.97 353.3 1171.97 334.3L1157.57 334.9C1150.97 334.9 1146.17 333.8 1143.17 331.6C1140.17 329.2 1138.67 325.4 1138.67 320.2C1138.67 313.6 1140.57 308.8 1144.37 305.8C1148.17 302.6 1154.47 300.8 1163.27 300.4L1179.17 299.8C1184.37 271.6 1186.97 250.1 1186.97 235.3C1186.97 225.9 1185.57 219.5 1182.77 216.1C1179.97 212.7 1176.27 211 1171.67 211C1157.67 211 1141.87 222.7 1124.27 246.1C1121.67 249.5 1118.77 251.2 1115.57 251.2C1112.77 251.2 1110.37 249.9 1108.37 247.3C1106.37 244.7 1105.37 241.4 1105.37 237.4C1105.37 231.2 1107.87 224.6 1112.87 217.6C1121.67 205.4 1132.77 195.4 1146.17 187.6C1159.57 179.6 1173.17 175.6 1186.97 175.6C1199.97 175.6 1209.97 180.1 1216.97 189.1C1224.17 197.9 1227.77 211.7 1227.77 230.5C1227.77 247.1 1225.37 269.6 1220.57 298L1249.97 296.5C1262.57 295.9 1273.37 294.9 1282.37 293.5C1285.97 271.5 1291.47 250.9 1298.87 231.7C1306.27 212.5 1315.47 196.9 1326.47 184.9C1337.47 172.9 1349.77 166.9 1363.37 166.9C1373.37 166.9 1381.27 170.9 1387.07 178.9C1392.87 186.7 1395.77 197 1395.77 209.8C1395.77 259.4 1370.47 293.8 1319.87 313C1319.27 321 1318.97 329.3 1318.97 337.9C1318.97 358.9 1321.57 373.8 1326.77 382.6C1331.97 391.4 1339.27 395.8 1348.67 395.8C1356.87 395.8 1364.37 393.7 1371.17 389.5C1377.97 385.1 1385.67 377.7 1394.27 367.3C1396.67 364.5 1399.37 363.1 1402.37 363.1ZM1361.87 193C1357.47 193 1352.77 197 1347.77 205C1342.97 213 1338.37 223.9 1333.97 237.7C1329.57 251.5 1326.07 266.6 1323.47 283C1339.47 276.4 1351.27 267 1358.87 254.8C1366.47 242.6 1370.27 226.9 1370.27 207.7C1370.27 203.1 1369.47 199.5 1367.87 196.9C1366.27 194.3 1364.27 193 1361.87 193ZM1666.38 363.1C1668.98 363.1 1670.98 364.3 1672.38 366.7C1673.98 369.1 1674.78 372.4 1674.78 376.6C1674.78 384.4 1672.88 390.6 1669.08 395.2C1659.48 406.8 1649.78 415.8 1639.98 422.2C1630.18 428.4 1618.58 431.5 1605.18 431.5C1592.18 431.5 1581.08 428 1571.88 421C1562.88 414 1554.28 402 1546.08 385C1539.48 371.4 1534.28 361.4 1530.48 355C1526.68 348.4 1522.88 343.7 1519.08 340.9C1515.48 338.1 1510.98 336.4 1505.58 335.8C1504.78 340 1502.48 353.2 1498.68 375.4C1497.08 385.4 1496.08 391.5 1495.68 393.7C1493.68 405.9 1489.68 415.3 1483.68 421.9C1477.68 428.3 1468.58 431.5 1456.38 431.5C1442.98 431.5 1431.08 427.6 1420.68 419.8C1410.48 411.8 1402.58 400.8 1396.98 386.8C1391.38 372.6 1388.58 356.5 1388.58 338.5C1388.58 304.9 1394.38 275.9 1405.98 251.5C1417.78 227.1 1434.18 208.5 1455.18 195.7C1476.38 182.7 1500.78 176.2 1528.38 176.2C1547.58 176.2 1563.68 179.1 1576.68 184.9C1589.68 190.7 1599.28 198.7 1605.48 208.9C1611.88 219.1 1615.08 230.6 1615.08 243.4C1615.08 254.6 1612.38 265.6 1606.98 276.4C1601.78 287 1593.88 296.4 1583.28 304.6C1572.68 312.8 1559.78 318.9 1544.58 322.9C1554.18 325.5 1561.58 329.7 1566.78 335.5C1571.98 341.3 1577.18 349.8 1582.38 361C1587.98 373 1593.48 381.8 1598.88 387.4C1604.48 393 1610.88 395.8 1618.08 395.8C1624.48 395.8 1630.58 393.7 1636.38 389.5C1642.18 385.1 1649.48 377.7 1658.28 367.3C1660.68 364.5 1663.38 363.1 1666.38 363.1ZM1464.18 335.5C1457.38 335.5 1452.68 333.9 1450.08 330.7C1447.68 327.5 1446.48 323.9 1446.48 319.9C1446.48 315.1 1447.98 311.3 1450.98 308.5C1454.18 305.7 1457.78 304.3 1461.78 304.3H1469.28C1472.48 284.7 1475.48 267.8 1478.28 253.6C1480.88 240.6 1489.28 234.1 1503.48 234.1C1514.88 234.1 1520.58 239.2 1520.58 249.4C1520.58 251.6 1520.48 253.3 1520.28 254.5L1511.28 304.3C1522.08 303.7 1531.88 301.1 1540.68 296.5C1549.68 291.9 1556.78 285.5 1561.98 277.3C1567.38 269.1 1570.08 259.8 1570.08 249.4C1570.08 236.8 1565.78 226.9 1557.18 219.7C1548.58 212.5 1535.98 208.9 1519.38 208.9C1499.78 208.9 1482.58 213.8 1467.78 223.6C1453.18 233.2 1441.78 247.6 1433.58 266.8C1425.38 285.8 1421.28 309 1421.28 336.4C1421.28 349.2 1422.58 360.2 1425.18 369.4C1427.78 378.6 1430.98 385.5 1434.78 390.1C1438.58 394.7 1442.18 397 1445.58 397C1448.18 397 1450.28 395.7 1451.88 393.1C1453.68 390.5 1455.08 386.3 1456.08 380.5L1464.18 335.5Z" fill="#D77011"/>
</g>
<defs>
<clipPath id="clip0_10_18">
<rect width="1745" height="558" fill="white"/>
</clipPath>
</defs>
</svg>
