<svg width="1745" height="558" viewBox="0 0 1745 558" fill="none" xmlns="http://www.w3.org/2000/svg">
<g clip-path="url(#clip0_13_2)">
<path d="M463 277.852C463 383.473 376.036 469.708 268 469.708C159.964 469.708 73 383.473 73 277.852C73 172.23 159.964 85.9951 268 85.9951C376.036 85.9951 463 172.23 463 277.852Z" stroke="white" stroke-width="50"/>
<path d="M384.023 336.275C391.417 336.275 397.544 342.333 396.011 349.566C394.459 356.888 391.627 364.065 387.561 370.935C381.057 381.923 371.525 391.907 359.508 400.318C347.491 408.728 333.225 415.399 317.524 419.951C301.823 424.502 284.995 426.845 268 426.845C251.006 426.845 234.177 424.502 218.476 419.951C202.775 415.399 188.509 408.728 176.492 400.318C164.475 391.907 154.943 381.923 148.439 370.935C144.374 364.065 141.541 356.888 139.989 349.566C138.456 342.333 144.583 336.275 151.977 336.275V336.275C159.372 336.275 165.21 342.367 167.124 349.51C168.429 354.383 170.455 359.16 173.179 363.763C178.337 372.478 185.897 380.396 195.427 387.066C204.958 393.736 216.272 399.027 228.724 402.636C241.176 406.246 254.522 408.104 268 408.104C281.478 408.104 294.824 406.246 307.276 402.636C319.729 399.027 331.043 393.736 340.573 387.066C350.104 380.396 357.664 372.478 362.821 363.763C365.546 359.16 367.571 354.383 368.877 349.51C370.79 342.367 376.628 336.275 384.023 336.275V336.275Z" fill="#D77011"/>
<path d="M318.25 347C325.083 348.333 328.5 352.083 328.5 358.25C328.5 362.417 326.583 366.167 322.75 369.5C319.083 372.667 313.75 374.25 306.75 374.25C294.75 374.25 284.917 370.583 277.25 363.25C269.75 355.75 266 346 266 334C266 327.5 269.333 322.833 276 320C283.333 316.833 288.583 313.5 291.75 310C294.917 306.333 296.5 301.917 296.5 296.75C296.5 293.75 295.833 291.5 294.5 290C293.333 288.5 291.833 287.75 290 287.75C285.5 287.75 280.5 291 275 297.5C269.667 304 264.667 312.417 260 322.75C255.333 332.917 251.667 343.417 249 354.25C247.167 362.083 245 367.417 242.5 370.25C240.167 372.917 236.417 374.25 231.25 374.25C226.083 374.25 222.25 372.417 219.75 368.75C217.417 364.917 215.833 359.083 215 351.25C214.167 343.417 213.75 331.917 213.75 316.75C213.75 291.083 216.333 264.333 221.5 236.5C226.833 208.667 234.583 185.333 244.75 166.5C255.083 147.5 267.417 138 281.75 138C289.417 138 295.583 141.333 300.25 148C305.083 154.5 307.5 163 307.5 173.5C307.5 190.333 302.583 207.833 292.75 226C282.917 244 266.917 265.083 244.75 289.25C244.25 297.917 244 306.833 244 316C252 295.167 261.167 280.083 271.5 270.75C281.833 261.25 291.5 256.5 300.5 256.5C308.833 256.5 315.5 259.333 320.5 265C325.667 270.667 328.25 277.667 328.25 286C328.25 295.167 325.917 303.583 321.25 311.25C316.583 318.917 308.583 325.75 297.25 331.75C298.25 336.75 300.25 340.25 303.25 342.25C306.417 344.083 311.417 345.667 318.25 347ZM276.5 162.75C273.5 162.75 270.167 167.083 266.5 175.75C262.833 184.25 259.25 195.833 255.75 210.5C252.417 225 249.667 240.833 247.5 258C257.833 245.833 266.333 232.583 273 218.25C279.833 203.917 283.25 190.917 283.25 179.25C283.25 173.917 282.667 169.833 281.5 167C280.333 164.167 278.667 162.75 276.5 162.75Z" fill="white"/>
<path d="M716.8 348.1C719.4 348.1 721.4 349.3 722.8 351.7C724.4 354.1 725.2 357.4 725.2 361.6C725.2 369.6 723.3 375.8 719.5 380.2C710.5 391.2 701.4 400 692.2 406.6C683 413.2 672.1 416.5 659.5 416.5C644.1 416.5 631.7 412.1 622.3 403.3C612.9 394.5 608.2 382.8 608.2 368.2C608.2 360.4 612.2 354.8 620.2 351.4C629 347.6 635.3 343.6 639.1 339.4C642.9 335 644.8 329.7 644.8 323.5C644.8 319.9 644 317.2 642.4 315.4C641 313.6 639.2 312.7 637 312.7C631.6 312.7 625.6 316.6 619 324.4C612.6 332.2 606.6 342.3 601 354.7C595.4 366.9 591 379.5 587.8 392.5C585.6 401.9 583 408.3 580 411.7C577.2 414.9 572.7 416.5 566.5 416.5C560.3 416.5 555.7 414.3 552.7 409.9C549.9 405.3 548 398.3 547 388.9C546 379.5 545.5 365.7 545.5 347.5C545.5 316.7 548.6 284.6 554.8 251.2C561.2 217.8 570.5 189.8 582.7 167.2C595.1 144.4 609.9 133 627.1 133C636.3 133 643.7 137 649.3 145C655.1 152.8 658 163 658 175.6C658 195.8 652.1 216.8 640.3 238.6C628.5 260.2 609.3 285.5 582.7 314.5C582.1 324.9 581.8 335.6 581.8 346.6C591.4 321.6 602.4 303.5 614.8 292.3C627.2 280.9 638.8 275.2 649.6 275.2C659.6 275.2 667.6 278.6 673.6 285.4C679.8 292.2 682.9 300.6 682.9 310.6C682.9 321.6 680.1 331.7 674.5 340.9C668.9 350.1 659.3 358.3 645.7 365.5C646.5 370.9 648.9 375.3 652.9 378.7C657.1 381.9 662.1 383.5 667.9 383.5C674.1 383.5 680.1 381.1 685.9 376.3C691.7 371.5 699.3 363.5 708.7 352.3C711.1 349.5 713.8 348.1 716.8 348.1ZM620.8 162.7C617.2 162.7 613.2 167.9 608.8 178.3C604.4 188.5 600.1 202.4 595.9 220C591.9 237.4 588.6 256.4 586 277C598.4 262.4 608.6 246.5 616.6 229.3C624.8 212.1 628.9 196.5 628.9 182.5C628.9 176.1 628.2 171.2 626.8 167.8C625.4 164.4 623.4 162.7 620.8 162.7ZM737.917 416.5C725.517 416.5 715.617 412 708.217 403C700.817 394 697.117 382.2 697.117 367.6C697.117 351.6 700.817 336.5 708.217 322.3C715.617 307.9 725.417 296.4 737.617 287.8C750.017 279 763.117 274.6 776.917 274.6C781.317 274.6 784.217 275.5 785.617 277.3C787.217 278.9 788.517 281.9 789.517 286.3C793.717 285.5 798.117 285.1 802.717 285.1C812.517 285.1 817.417 288.6 817.417 295.6C817.417 299.8 815.917 309.8 812.917 325.6C808.317 348.6 806.017 364.6 806.017 373.6C806.017 376.6 806.717 379 808.117 380.8C809.717 382.6 811.717 383.5 814.117 383.5C817.917 383.5 822.517 381.1 827.917 376.3C833.317 371.3 840.617 363.3 849.817 352.3C852.217 349.5 854.917 348.1 857.917 348.1C860.517 348.1 862.517 349.3 863.917 351.7C865.517 354.1 866.317 357.4 866.317 361.6C866.317 369.6 864.417 375.8 860.617 380.2C852.417 390.4 843.717 399 834.517 406C825.317 413 816.417 416.5 807.817 416.5C801.217 416.5 795.117 414.3 789.517 409.9C784.117 405.3 780.017 399.1 777.217 391.3C766.817 408.1 753.717 416.5 737.917 416.5ZM748.717 386.2C753.117 386.2 757.317 383.6 761.317 378.4C765.317 373.2 768.217 366.3 770.017 357.7L781.117 302.5C772.717 302.7 764.917 305.9 757.717 312.1C750.717 318.1 745.117 326.1 740.917 336.1C736.717 346.1 734.617 356.7 734.617 367.9C734.617 374.1 735.817 378.7 738.217 381.7C740.817 384.7 744.317 386.2 748.717 386.2ZM985.776 348.1C988.376 348.1 990.376 349.3 991.776 351.7C993.376 354.1 994.176 357.4 994.176 361.6C994.176 369 992.276 375.2 988.476 380.2C979.076 392.4 967.376 402 953.376 409C939.576 416 923.976 419.5 906.576 419.5C892.976 419.5 881.176 417.5 871.176 413.5C861.176 409.3 853.476 403.7 848.076 396.7C842.876 389.5 840.276 381.5 840.276 372.7C840.276 359.5 845.576 347.8 856.176 337.6C866.776 327.4 881.976 317.6 901.776 308.2L852.576 309.4C848.176 309.6 844.776 308.1 842.376 304.9C840.176 301.5 839.076 297.5 839.076 292.9C839.076 288.1 840.176 283.9 842.376 280.3C844.776 276.5 847.976 274.6 851.976 274.6C861.176 274.6 873.476 275.3 888.876 276.7C892.076 276.9 897.876 277.3 906.276 277.9C914.876 278.5 922.076 278.8 927.876 278.8C929.876 278.8 933.676 278 939.276 276.4C940.276 276.2 942.176 275.7 944.976 274.9C947.976 274.1 950.476 273.7 952.476 273.7C955.676 273.7 958.276 275.1 960.276 277.9C962.476 280.7 963.576 285 963.576 290.8C963.576 297.2 962.076 302.2 959.076 305.8C956.076 309.4 951.376 312.6 944.976 315.4C926.776 323.2 911.676 331.6 899.676 340.6C887.676 349.4 881.676 358.2 881.676 367C881.676 372.6 884.276 377.2 889.476 380.8C894.676 384.4 902.376 386.2 912.576 386.2C923.776 386.2 935.076 383.4 946.476 377.8C958.076 372.2 968.476 363.7 977.676 352.3C980.076 349.5 982.776 348.1 985.776 348.1ZM1011.07 255.4C1002.67 255.4 996.37 253.5 992.17 249.7C987.97 245.7 985.87 240.2 985.87 233.2C985.87 226.2 988.57 220.4 993.97 215.8C999.57 211 1006.47 208.6 1014.67 208.6C1022.07 208.6 1028.07 210.4 1032.67 214C1037.27 217.6 1039.57 222.7 1039.57 229.3C1039.57 237.3 1036.97 243.7 1031.77 248.5C1026.57 253.1 1019.67 255.4 1011.07 255.4ZM982.27 416.5C975.87 416.5 971.47 415.2 969.07 412.6C966.67 410 965.47 405.9 965.47 400.3C965.47 398.7 965.67 395.9 966.07 391.9C969.27 355.3 974.57 322 981.97 292C983.57 285.8 986.17 281.5 989.77 279.1C993.57 276.5 999.57 275.2 1007.77 275.2C1016.37 275.2 1020.67 278.7 1020.67 285.7C1020.67 286.7 1020.47 288.6 1020.07 291.4C1011.07 334.2 1005.67 370.1 1003.87 399.1C1003.47 405.5 1001.57 410 998.17 412.6C994.77 415.2 989.47 416.5 982.27 416.5Z" fill="white"/>
<path d="M1393.37 348.1C1395.97 348.1 1397.97 349.3 1399.37 351.7C1400.97 354.1 1401.77 357.4 1401.77 361.6C1401.77 369.4 1399.87 375.6 1396.07 380.2C1376.27 404.4 1355.17 416.5 1332.77 416.5C1313.37 416.5 1297.87 409 1286.27 394C1274.67 379 1268.87 357.5 1268.87 329.5C1268.87 322.7 1269.17 315.9 1269.77 309.1C1256.57 311.5 1242.17 313.3 1226.57 314.5C1216.17 315.3 1209.07 315.8 1205.27 316C1201.27 336.4 1195.67 361.4 1188.47 391C1184.27 408.4 1176.27 417.1 1164.47 417.1C1151.67 417.1 1145.27 411.3 1145.27 399.7C1145.27 397.1 1145.77 393.5 1146.77 388.9C1153.57 361.5 1158.97 338.3 1162.97 319.3L1148.57 319.9C1141.97 319.9 1137.17 318.8 1134.17 316.6C1131.17 314.2 1129.67 310.4 1129.67 305.2C1129.67 298.6 1131.57 293.8 1135.37 290.8C1139.17 287.6 1145.47 285.8 1154.27 285.4L1170.17 284.8C1175.37 256.6 1177.97 235.1 1177.97 220.3C1177.97 210.9 1176.57 204.5 1173.77 201.1C1170.97 197.7 1167.27 196 1162.67 196C1148.67 196 1132.87 207.7 1115.27 231.1C1112.67 234.5 1109.77 236.2 1106.57 236.2C1103.77 236.2 1101.37 234.9 1099.37 232.3C1097.37 229.7 1096.37 226.4 1096.37 222.4C1096.37 216.2 1098.87 209.6 1103.87 202.6C1112.67 190.4 1123.77 180.4 1137.17 172.6C1150.57 164.6 1164.17 160.6 1177.97 160.6C1190.97 160.6 1200.97 165.1 1207.97 174.1C1215.17 182.9 1218.77 196.7 1218.77 215.5C1218.77 232.1 1216.37 254.6 1211.57 283L1240.97 281.5C1253.57 280.9 1264.37 279.9 1273.37 278.5C1276.97 256.5 1282.47 235.9 1289.87 216.7C1297.27 197.5 1306.47 181.9 1317.47 169.9C1328.47 157.9 1340.77 151.9 1354.37 151.9C1364.37 151.9 1372.27 155.9 1378.07 163.9C1383.87 171.7 1386.77 182 1386.77 194.8C1386.77 244.4 1361.47 278.8 1310.87 298C1310.27 306 1309.97 314.3 1309.97 322.9C1309.97 343.9 1312.57 358.8 1317.77 367.6C1322.97 376.4 1330.27 380.8 1339.67 380.8C1347.87 380.8 1355.37 378.7 1362.17 374.5C1368.97 370.1 1376.67 362.7 1385.27 352.3C1387.67 349.5 1390.37 348.1 1393.37 348.1ZM1352.87 178C1348.47 178 1343.77 182 1338.77 190C1333.97 198 1329.37 208.9 1324.97 222.7C1320.57 236.5 1317.07 251.6 1314.47 268C1330.47 261.4 1342.27 252 1349.87 239.8C1357.47 227.6 1361.27 211.9 1361.27 192.7C1361.27 188.1 1360.47 184.5 1358.87 181.9C1357.27 179.3 1355.27 178 1352.87 178ZM1657.38 348.1C1659.98 348.1 1661.98 349.3 1663.38 351.7C1664.98 354.1 1665.78 357.4 1665.78 361.6C1665.78 369.4 1663.88 375.6 1660.08 380.2C1650.48 391.8 1640.78 400.8 1630.98 407.2C1621.18 413.4 1609.58 416.5 1596.18 416.5C1583.18 416.5 1572.08 413 1562.88 406C1553.88 399 1545.28 387 1537.08 370C1530.48 356.4 1525.28 346.4 1521.48 340C1517.68 333.4 1513.88 328.7 1510.08 325.9C1506.48 323.1 1501.98 321.4 1496.58 320.8C1495.78 325 1493.48 338.2 1489.68 360.4C1488.08 370.4 1487.08 376.5 1486.68 378.7C1484.68 390.9 1480.68 400.3 1474.68 406.9C1468.68 413.3 1459.58 416.5 1447.38 416.5C1433.98 416.5 1422.08 412.6 1411.68 404.8C1401.48 396.8 1393.58 385.8 1387.98 371.8C1382.38 357.6 1379.58 341.5 1379.58 323.5C1379.58 289.9 1385.38 260.9 1396.98 236.5C1408.78 212.1 1425.18 193.5 1446.18 180.7C1467.38 167.7 1491.78 161.2 1519.38 161.2C1538.58 161.2 1554.68 164.1 1567.68 169.9C1580.68 175.7 1590.28 183.7 1596.48 193.9C1602.88 204.1 1606.08 215.6 1606.08 228.4C1606.08 239.6 1603.38 250.6 1597.98 261.4C1592.78 272 1584.88 281.4 1574.28 289.6C1563.68 297.8 1550.78 303.9 1535.58 307.9C1545.18 310.5 1552.58 314.7 1557.78 320.5C1562.98 326.3 1568.18 334.8 1573.38 346C1578.98 358 1584.48 366.8 1589.88 372.4C1595.48 378 1601.88 380.8 1609.08 380.8C1615.48 380.8 1621.58 378.7 1627.38 374.5C1633.18 370.1 1640.48 362.7 1649.28 352.3C1651.68 349.5 1654.38 348.1 1657.38 348.1ZM1455.18 320.5C1448.38 320.5 1443.68 318.9 1441.08 315.7C1438.68 312.5 1437.48 308.9 1437.48 304.9C1437.48 300.1 1438.98 296.3 1441.98 293.5C1445.18 290.7 1448.78 289.3 1452.78 289.3H1460.28C1463.48 269.7 1466.48 252.8 1469.28 238.6C1471.88 225.6 1480.28 219.1 1494.48 219.1C1505.88 219.1 1511.58 224.2 1511.58 234.4C1511.58 236.6 1511.48 238.3 1511.28 239.5L1502.28 289.3C1513.08 288.7 1522.88 286.1 1531.68 281.5C1540.68 276.9 1547.78 270.5 1552.98 262.3C1558.38 254.1 1561.08 244.8 1561.08 234.4C1561.08 221.8 1556.78 211.9 1548.18 204.7C1539.58 197.5 1526.98 193.9 1510.38 193.9C1490.78 193.9 1473.58 198.8 1458.78 208.6C1444.18 218.2 1432.78 232.6 1424.58 251.8C1416.38 270.8 1412.28 294 1412.28 321.4C1412.28 334.2 1413.58 345.2 1416.18 354.4C1418.78 363.6 1421.98 370.5 1425.78 375.1C1429.58 379.7 1433.18 382 1436.58 382C1439.18 382 1441.28 380.7 1442.88 378.1C1444.68 375.5 1446.08 371.3 1447.08 365.5L1455.18 320.5Z" fill="#D77011"/>
</g>
<defs>
<clipPath id="clip0_13_2">
<rect width="1745" height="558" fill="white"/>
</clipPath>
</defs>
</svg>
