<svg width="1347" height="850" viewBox="0 0 1347 850" fill="none" xmlns="http://www.w3.org/2000/svg">
<path d="M536.366 679.4C504.633 679.4 476.633 671.233 452.366 654.9C428.099 638.567 409.199 616.633 395.666 589.1C382.133 561.1 375.366 529.6 375.366 494.6C375.366 458.2 383.299 425.767 399.166 397.3C415.033 368.367 437.433 345.5 466.366 328.7C495.766 311.9 530.299 303.5 569.966 303.5C610.099 303.5 644.166 311.9 672.166 328.7C700.633 345.033 722.333 367.667 737.266 396.6C752.666 425.067 760.366 457.033 760.366 492.5V671H653.966V613.6H651.166C644.633 626.2 636.233 637.633 625.966 647.9C615.699 657.7 603.099 665.4 588.166 671C573.699 676.6 556.433 679.4 536.366 679.4ZM568.566 585.6C584.899 585.6 599.133 581.633 611.266 573.7C623.866 565.3 633.433 553.867 639.966 539.4C646.499 524.933 649.766 508.833 649.766 491.1C649.766 473.833 646.499 458.2 639.966 444.2C633.433 430.2 623.866 419.233 611.266 411.3C599.133 402.9 584.899 398.7 568.566 398.7C551.766 398.7 537.066 402.9 524.466 411.3C511.866 419.233 502.299 430.2 495.766 444.2C489.233 458.2 485.966 473.833 485.966 491.1C485.966 508.833 489.233 524.933 495.766 539.4C502.299 553.867 511.866 565.3 524.466 573.7C537.066 581.633 551.766 585.6 568.566 585.6ZM918.304 671C898.237 671 881.204 666.8 867.204 658.4C853.204 650 842.237 638.8 834.304 624.8C826.37 610.8 822.404 595.633 822.404 579.3C822.404 563.433 826.37 549.2 834.304 536.6C842.704 523.533 853.904 512.567 867.904 503.7L996.004 418.3C998.337 416.9 999.97 415.5 1000.9 414.1C1001.84 412.233 1002.3 410.833 1002.3 409.9C1002.3 407.567 1001.37 405.7 999.504 404.3C997.637 402.433 995.304 401.5 992.504 401.5H838.504L837.804 311.9H1030.3C1048.97 311.9 1065.07 316.333 1078.6 325.2C1092.6 333.6 1103.57 344.8 1111.5 358.8C1119.9 372.8 1124.1 387.967 1124.1 404.3C1124.1 419.7 1120.14 434.167 1112.2 447.7C1104.74 460.767 1094.47 471.733 1081.4 480.6L953.304 564.6C951.437 566 950.037 567.4 949.104 568.8C948.17 570.2 947.704 571.6 947.704 573C947.704 575.333 948.637 577.433 950.504 579.3C952.37 580.7 954.704 581.4 957.504 581.4H1117.1V671H918.304ZM1194.02 671V311.9H1303.22V671H1194.02ZM1248.62 271.3C1231.35 271.3 1216.42 265 1203.82 252.4C1191.22 239.8 1184.92 224.867 1184.92 207.6C1184.92 190.333 1191.22 175.4 1203.82 162.8C1216.42 149.733 1231.35 143.2 1248.62 143.2C1265.89 143.2 1280.82 149.733 1293.42 162.8C1306.02 175.4 1312.32 190.333 1312.32 207.6C1312.32 224.867 1306.02 239.8 1293.42 252.4C1280.82 265 1265.89 271.3 1248.62 271.3Z" fill="#075985"/>
<path d="M0 100H130.671C141.717 100 150.671 108.954 150.671 120V651C150.671 662.046 141.717 671 130.671 671H0V100Z" fill="#075985"/>
<path d="M170.761 651V418.555C170.761 403.405 186.95 393.756 200.275 400.963L310.946 460.821C317.406 464.315 321.432 471.068 321.432 478.413V651C321.432 662.046 312.477 671 301.432 671H190.761C179.715 671 170.761 662.046 170.761 651Z" fill="#075985" stroke="#075985"/>
<path d="M170.945 120.486V335.488C170.945 350.397 186.67 360.064 199.974 353.334L310.645 297.341C317.374 293.936 321.616 287.036 321.616 279.495V120.486C321.616 109.44 312.662 100.486 301.616 100.486H190.945C179.899 100.486 170.945 109.44 170.945 120.486Z" fill="#EA580C" stroke="#EA580C"/>
</svg>
